# 3ds Max Wavefront OBJ Exporter v0.97b - (c)2007 guruware
# File Created: 26.10.2015 18:52:04

mtllib 3d-model.mtl

#
# object skpE45D_001
#

v  -2393.8567 5289.5498 -3666.3579
v  -1746.1566 0.0000 -4314.0571
v  -3041.5566 0.0000 -4314.0571
v  -1746.1566 0.0000 -3018.6577
v  -3041.5566 0.0000 -3018.6577
v  -1269.7874 5289.5498 -1617.1143
v  -622.0874 0.0000 -2264.8145
v  -1917.4874 0.0000 -2264.8145
v  -622.0874 0.0000 -969.4146
v  -1917.4874 0.0000 -969.4146
v  -1955.1747 5289.5498 928.0669
v  -1307.4746 0.0000 280.3667
v  -2602.8745 0.0000 280.3667
v  -1307.4746 0.0000 1575.7666
v  -2602.8745 0.0000 1575.7666
v  -1226.1121 5289.5498 2843.1792
v  -1873.8121 0.0000 3490.8792
v  -578.4121 0.0000 3490.8792
v  -1873.8121 0.0000 2195.4792
v  -578.4121 0.0000 2195.4792
v  1900.5007 0.0000 3728.5518
v  1252.8010 5289.5498 4376.2520
v  1900.5007 0.0000 5023.9521
v  605.1008 0.0000 3728.5518
v  605.1008 0.0000 5023.9521
v  597.9285 0.0000 -5176.1733
v  597.9285 0.0000 -3880.7739
v  1245.6287 5289.5498 -4528.4741
v  1893.3284 0.0000 -5176.1733
v  1893.3284 0.0000 -3880.7739
v  2085.6433 0.0000 -1295.3999
v  1437.9431 5289.5498 -647.6997
v  2085.6433 0.0000 -0.0000
v  790.2429 0.0000 -1295.3999
v  790.2429 0.0000 -0.0000
v  2460.9817 0.0000 1019.4023
v  1813.2820 5289.5498 1667.1025
v  2460.9817 0.0000 2314.8025
v  1165.5818 0.0000 1019.4023
v  1165.5818 0.0000 2314.8025
v  2454.6956 5289.5498 -2839.7905
v  1806.9954 0.0000 -2192.0908
v  3102.3953 0.0000 -2192.0908
v  1806.9954 0.0000 -3487.4907
v  3102.3953 0.0000 -3487.4907
v  -2089.1499 0.0000 4180.9170
v  -2736.8501 5289.5498 4828.6167
v  -2089.1499 0.0000 5476.3169
v  -3384.5500 0.0000 4180.9170
v  -3384.5500 0.0000 5476.3169
v  3384.5500 0.0000 5476.3169
v  3384.5500 0.0000 -5476.3169
v  -3384.5500 0.0000 -5476.3169
# 53 vertices

vn 0.0000 0.1215 -0.9926
vn 0.9926 0.1215 -0.0000
vn 0.0000 0.1215 0.9926
vn -0.9926 0.1215 -0.0000
vn 0.0000 1.0000 -0.0000
# 5 vertex normals

vt 0.0000 0.0000 0.0000
# 1 texture coords

g skpE45D_001
usemtl wire_134006006
s off
f 1/1/1 2/1/1 3/1/1 
f 2/1/2 1/1/2 4/1/2 
f 1/1/3 5/1/3 4/1/3 
f 3/1/4 5/1/4 1/1/4 
f 6/1/1 7/1/1 8/1/1 
f 7/1/2 6/1/2 9/1/2 
f 6/1/3 10/1/3 9/1/3 
f 8/1/4 10/1/4 6/1/4 
f 11/1/1 12/1/1 13/1/1 
f 12/1/2 11/1/2 14/1/2 
f 11/1/3 15/1/3 14/1/3 
f 13/1/4 15/1/4 11/1/4 
f 16/1/3 17/1/3 18/1/3 
f 19/1/4 17/1/4 16/1/4 
f 20/1/2 16/1/2 18/1/2 
f 16/1/1 20/1/1 19/1/1 
f 21/1/2 22/1/2 23/1/2 
f 22/1/1 21/1/1 24/1/1 
f 24/1/4 25/1/4 22/1/4 
f 22/1/3 25/1/3 23/1/3 
f 26/1/4 27/1/4 28/1/4 
f 29/1/2 28/1/2 30/1/2 
f 28/1/1 29/1/1 26/1/1 
f 28/1/3 27/1/3 30/1/3 
f 31/1/2 32/1/2 33/1/2 
f 32/1/1 31/1/1 34/1/1 
f 34/1/4 35/1/4 32/1/4 
f 32/1/3 35/1/3 33/1/3 
f 36/1/2 37/1/2 38/1/2 
f 37/1/1 36/1/1 39/1/1 
f 39/1/4 40/1/4 37/1/4 
f 37/1/3 40/1/3 38/1/3 
f 41/1/3 42/1/3 43/1/3 
f 44/1/4 42/1/4 41/1/4 
f 45/1/2 41/1/2 43/1/2 
f 41/1/1 45/1/1 44/1/1 
f 46/1/2 47/1/2 48/1/2 
f 47/1/1 46/1/1 49/1/1 
f 49/1/4 50/1/4 47/1/4 
f 47/1/3 50/1/3 48/1/3 
f 8/1/5 10/1/5 9/1/5 7/1/5 
f 3/1/5 5/1/5 4/1/5 2/1/5 
f 49/1/5 50/1/5 48/1/5 46/1/5 
f 19/1/5 17/1/5 18/1/5 20/1/5 
f 24/1/5 25/1/5 23/1/5 21/1/5 
f 39/1/5 40/1/5 38/1/5 36/1/5 
f 26/1/5 27/1/5 30/1/5 29/1/5 
f 34/1/5 35/1/5 33/1/5 31/1/5 
f 44/1/5 42/1/5 43/1/5 45/1/5 
f 13/1/5 15/1/5 14/1/5 12/1/5 
f 34/1/5 30/1/5 27/1/5 24/1/5 
f 25/1/5 24/1/5 27/1/5 20/1/5 
f 25/1/5 20/1/5 18/1/5 17/1/5 
f 25/1/5 17/1/5 46/1/5 48/1/5 
f 25/1/5 48/1/5 51/1/5 23/1/5 
f 21/1/5 23/1/5 51/1/5 38/1/5 
f 36/1/5 38/1/5 51/1/5 43/1/5 
f 45/1/5 43/1/5 51/1/5 52/1/5 
f 29/1/5 45/1/5 52/1/5 26/1/5 
f 26/1/5 52/1/5 53/1/5 3/1/5 
f 5/1/5 3/1/5 53/1/5 15/1/5 
f 15/1/5 53/1/5 49/1/5 46/1/5 
f 19/1/5 15/1/5 46/1/5 17/1/5 
f 14/1/5 15/1/5 19/1/5 20/1/5 
f 12/1/5 14/1/5 20/1/5 9/1/5 
f 7/1/5 9/1/5 20/1/5 26/1/5 
f 2/1/5 7/1/5 26/1/5 3/1/5 
f 7/1/5 2/1/5 4/1/5 8/1/5 
f 13/1/5 8/1/5 4/1/5 5/1/5 
f 13/1/5 5/1/5 15/1/5 
f 10/1/5 8/1/5 13/1/5 12/1/5 
f 10/1/5 12/1/5 9/1/5 
f 26/1/5 20/1/5 27/1/5 
f 45/1/5 29/1/5 30/1/5 44/1/5 
f 44/1/5 30/1/5 34/1/5 42/1/5 
f 42/1/5 34/1/5 31/1/5 43/1/5 
f 36/1/5 43/1/5 31/1/5 33/1/5 
f 39/1/5 36/1/5 33/1/5 35/1/5 
f 40/1/5 39/1/5 35/1/5 24/1/5 
f 40/1/5 24/1/5 21/1/5 38/1/5 
f 34/1/5 24/1/5 35/1/5 
# 37 polygons - 44 triangles

