# Blender v2.78 (sub 0) OBJ File: ''
# www.blender.org
mtllib spikes3.mtl
o skpE45D_001
v -0.838744 0.295599 -0.735089
v -0.986916 0.215619 0.000000
v -0.986916 0.375578 0.000000
v -0.690571 0.215619 0.000000
v -0.690571 0.375578 0.000000
v -0.369943 0.156796 -0.735089
v -0.518116 0.076817 0.000000
v -0.518116 0.236776 0.000000
v -0.221771 0.076817 0.000000
v -0.221771 0.236776 0.000000
v 0.212312 0.241429 -0.735089
v 0.064139 0.161450 0.000000
v 0.064139 0.321409 0.000000
v 0.360484 0.161450 0.000000
v 0.360484 0.321409 0.000000
v 0.650427 0.151403 -0.735089
v 0.798600 0.231383 0.000000
v 0.798600 0.071424 0.000000
v 0.502254 0.231383 0.000000
v 0.502254 0.071424 0.000000
v 0.852972 -0.234678 -0.000000
v 1.001144 -0.154699 -0.735089
v 1.149317 -0.234678 -0.000000
v 0.852972 -0.074719 -0.000000
v 1.149317 -0.074719 -0.000000
v -1.184140 -0.073834 -0.000000
v -0.887795 -0.073834 -0.000000
v -1.035968 -0.153813 -0.735089
v -1.184140 -0.233793 -0.000000
v -0.887795 -0.233793 -0.000000
v -0.296345 -0.257540 -0.000000
v -0.148173 -0.177560 -0.735089
v 0.000000 -0.257540 -0.000000
v -0.296345 -0.097581 -0.000000
v 0.000000 -0.097581 -0.000000
v 0.233206 -0.303888 -0.000000
v 0.381379 -0.223908 -0.735089
v 0.529552 -0.303888 -0.000000
v 0.233206 -0.143929 -0.000000
v 0.529552 -0.143929 -0.000000
v -0.649652 -0.303111 -0.735089
v -0.501479 -0.223132 -0.000000
v -0.501479 -0.383091 -0.000000
v -0.797825 -0.223132 -0.000000
v -0.797825 -0.383091 -0.000000
v 0.956458 0.257973 0.000000
v 1.104631 0.337953 -0.735089
v 1.252803 0.257973 0.000000
v 0.956458 0.417932 0.000000
v 1.252803 0.417932 0.000000
v -0.986916 0.215619 0.000000
v -0.986916 0.375578 0.000000
v -0.690571 0.215619 0.000000
v -0.690571 0.375578 0.000000
v -0.518116 0.076817 0.000000
v -0.518116 0.236776 0.000000
v -0.221771 0.076817 0.000000
v -0.221771 0.236776 0.000000
v 0.064139 0.161450 0.000000
v 0.064139 0.321409 0.000000
v 0.360484 0.161450 0.000000
v 0.360484 0.321409 0.000000
v 0.798600 0.231383 0.000000
v 0.798600 0.071424 0.000000
v 0.502254 0.231383 0.000000
v 0.502254 0.071424 0.000000
v 0.852972 -0.234678 -0.000000
v 1.149317 -0.234678 -0.000000
v 0.852972 -0.074719 -0.000000
v 1.149317 -0.074719 -0.000000
v -1.184140 -0.073834 -0.000000
v -0.887795 -0.073834 -0.000000
v -1.184140 -0.233793 -0.000000
v -0.887795 -0.233793 -0.000000
v -0.296345 -0.257540 -0.000000
v 0.000000 -0.257540 -0.000000
v -0.296345 -0.097581 -0.000000
v 0.000000 -0.097581 -0.000000
v 0.233206 -0.303888 -0.000000
v 0.529552 -0.303888 -0.000000
v 0.233206 -0.143929 -0.000000
v 0.529552 -0.143929 -0.000000
v -0.501479 -0.223132 -0.000000
v -0.501479 -0.383091 -0.000000
v -0.797825 -0.223132 -0.000000
v -0.797825 -0.383091 -0.000000
v 0.956458 0.257973 0.000000
v 1.252803 0.257973 0.000000
v 0.956458 0.417932 0.000000
v 1.252803 0.417932 0.000000
vt 0.0000 0.0000
vt 0.0000 0.0000
vt 0.0000 0.0000
vt 0.0000 0.0000
vt 0.0000 0.0000
vt 0.0000 0.0000
vt 0.0000 0.0000
vt 0.0000 0.0000
vt 0.0000 0.0000
vt 0.0000 0.0000
vt 0.0000 0.0000
vt 0.0000 0.0000
vt 0.0000 0.0000
vt 0.0000 0.0000
vt 0.0000 0.0000
vt 0.0000 0.0000
vt 0.0000 0.0000
vt 0.0000 0.0000
vt 0.0000 0.0000
vt 0.0000 0.0000
vt 0.0000 0.0000
vt 0.0000 0.0000
vt 0.0000 0.0000
vt 0.0000 0.0000
vt 0.0000 0.0000
vt 0.0000 0.0000
vt 0.0000 0.0000
vt 0.0000 0.0000
vt 0.0000 0.0000
vt 0.0000 0.0000
vt 0.0000 0.0000
vt 0.0000 0.0000
vt 0.0000 0.0000
vt 0.0000 0.0000
vt 0.0000 0.0000
vt 0.0000 0.0000
vt 0.0000 0.0000
vt 0.0000 0.0000
vt 0.0000 0.0000
vt 0.0000 0.0000
vt 0.0000 0.0000
vt 0.0000 0.0000
vt 0.0000 0.0000
vt 0.0000 0.0000
vt 0.0000 0.0000
vt 0.0000 0.0000
vt 0.0000 0.0000
vt 0.0000 0.0000
vt 0.0000 0.0000
vt 0.0000 0.0000
vn -0.9803 0.0000 -0.1976
vn 0.0000 -0.9941 -0.1082
vn 0.9803 -0.0000 -0.1976
vn 0.0000 0.9941 -0.1082
usemtl wire_134006006
s 1
f 1/1/1 2/2/1 3/3/1
f 2/2/2 1/1/2 4/4/2
f 1/1/3 5/5/3 4/4/3
f 3/3/4 5/5/4 1/1/4
f 6/6/1 7/7/1 8/8/1
f 7/7/2 6/6/2 9/9/2
f 6/6/3 10/10/3 9/9/3
f 8/8/4 10/10/4 6/6/4
f 11/11/1 12/12/1 13/13/1
f 12/12/2 11/11/2 14/14/2
f 11/11/3 15/15/3 14/14/3
f 13/13/4 15/15/4 11/11/4
f 16/16/3 17/17/3 18/18/3
f 19/19/4 17/17/4 16/16/4
f 20/20/2 16/16/2 18/18/2
f 16/16/1 20/20/1 19/19/1
f 21/21/2 22/22/2 23/23/2
f 22/22/1 21/21/1 24/24/1
f 24/24/4 25/25/4 22/22/4
f 22/22/3 25/25/3 23/23/3
f 26/26/4 27/27/4 28/28/4
f 29/29/2 28/28/2 30/30/2
f 28/28/1 29/29/1 26/26/1
f 28/28/3 27/27/3 30/30/3
f 31/31/2 32/32/2 33/33/2
f 32/32/1 31/31/1 34/34/1
f 34/34/4 35/35/4 32/32/4
f 32/32/3 35/35/3 33/33/3
f 36/36/2 37/37/2 38/38/2
f 37/37/1 36/36/1 39/39/1
f 39/39/4 40/40/4 37/37/4
f 37/37/3 40/40/3 38/38/3
f 41/41/3 42/42/3 43/43/3
f 44/44/4 42/42/4 41/41/4
f 45/45/2 41/41/2 43/43/2
f 41/41/1 45/45/1 44/44/1
f 46/46/2 47/47/2 48/48/2
f 47/47/1 46/46/1 49/49/1
f 49/49/4 50/50/4 47/47/4
f 47/47/3 50/50/3 48/48/3
l 71 72
l 71 73
l 67 69
l 84 86
l 56 58
l 79 80
l 81 82
l 85 86
l 75 76
l 83 84
l 55 56
l 65 66
l 87 89
l 59 60
l 64 66
l 63 64
l 51 53
l 61 62
l 72 74
l 60 62
l 88 90
l 67 68
l 68 70
l 79 81
l 73 74
l 83 85
l 69 70
l 55 57
l 89 90
l 75 77
l 77 78
l 87 88
l 76 78
l 59 61
l 52 54
l 63 65
l 53 54
l 51 52
l 57 58
l 80 82
