# Blender v2.78 (sub 0) OBJ File: ''
# www.blender.org
mtllib spikes2.mtl
o skpE45D_001
v -0.838744 0.295599 -0.735089
v -0.986916 0.215619 -0.000000
v -0.986916 0.375578 -0.000000
v -0.690571 0.215619 -0.000000
v -0.690571 0.375578 -0.000000
v -0.369943 0.156796 -0.735089
v -0.518116 0.076817 -0.000000
v -0.518116 0.236776 -0.000000
v -0.221771 0.076817 -0.000000
v -0.221771 0.236776 -0.000000
v 0.212312 0.241429 -0.735089
v 0.064139 0.161450 0.000000
v 0.064139 0.321409 0.000000
v 0.360484 0.161450 0.000000
v 0.360484 0.321409 0.000000
v 0.650427 0.151403 -0.735089
v 0.798600 0.231383 0.000000
v 0.798600 0.071424 0.000000
v 0.502254 0.231383 0.000000
v 0.502254 0.071424 0.000000
v 0.852972 -0.234678 0.000000
v 1.001144 -0.154699 -0.735089
v 1.149317 -0.234678 0.000000
v 0.852972 -0.074719 0.000000
v 1.149317 -0.074719 0.000000
v -1.184140 -0.073834 -0.000000
v -0.887795 -0.073834 -0.000000
v -1.035968 -0.153813 -0.735089
v -1.184140 -0.233793 -0.000000
v -0.887795 -0.233793 -0.000000
v -0.296345 -0.257540 -0.000000
v -0.148173 -0.177560 -0.735089
v 0.000000 -0.257540 0.000000
v -0.296345 -0.097581 -0.000000
v 0.000000 -0.097581 0.000000
v 0.233206 -0.303888 0.000000
v 0.381379 -0.223908 -0.735089
v 0.529552 -0.303888 0.000000
v 0.233206 -0.143929 0.000000
v 0.529552 -0.143929 0.000000
v -0.649652 -0.303111 -0.735089
v -0.501479 -0.223132 -0.000000
v -0.501479 -0.383091 -0.000000
v -0.797825 -0.223132 -0.000000
v -0.797825 -0.383091 -0.000000
v 0.956458 0.257973 0.000000
v 1.104631 0.337953 -0.735089
v 1.252803 0.257973 0.000000
v 0.956458 0.417932 0.000000
v 1.252803 0.417932 0.000000
v 1.252803 -0.417932 0.000000
v -1.252803 -0.417932 -0.000000
v -1.252803 0.417932 -0.000000
vt 0.0000 0.0000
vt 0.0000 0.0000
vt 0.0000 0.0000
vt 0.0000 0.0000
vt 0.0000 0.0000
vt 0.0000 0.0000
vt 0.0000 0.0000
vt 0.0000 0.0000
vt 0.0000 0.0000
vt 0.0000 0.0000
vt 0.0000 0.0000
vt 0.0000 0.0000
vt 0.0000 0.0000
vt 0.0000 0.0000
vt 0.0000 0.0000
vt 0.0000 0.0000
vt 0.0000 0.0000
vt 0.0000 0.0000
vt 0.0000 0.0000
vt 0.0000 0.0000
vt 0.0000 0.0000
vt 0.0000 0.0000
vt 0.0000 0.0000
vt 0.0000 0.0000
vt 0.0000 0.0000
vt 0.0000 0.0000
vt 0.0000 0.0000
vt 0.0000 0.0000
vt 0.0000 0.0000
vt 0.0000 0.0000
vt 0.0000 0.0000
vt 0.0000 0.0000
vt 0.0000 0.0000
vt 0.0000 0.0000
vt 0.0000 0.0000
vt 0.0000 0.0000
vt 0.0000 0.0000
vt 0.0000 0.0000
vt 0.0000 0.0000
vt 0.0000 0.0000
vt 0.0000 0.0000
vt 0.0000 0.0000
vt 0.0000 0.0000
vt 0.0000 0.0000
vt 0.0000 0.0000
vt 0.0000 0.0000
vt 0.0000 0.0000
vt 0.0000 0.0000
vt 0.0000 0.0000
vt 0.0000 0.0000
vt 0.0000 0.0000
vt 0.0000 0.0000
vt 0.0000 0.0000
vn -0.9803 0.0000 -0.1976
vn 0.0000 -0.9941 -0.1082
vn 0.9803 0.0000 -0.1976
vn -0.0000 0.9941 -0.1082
vn 0.0000 0.0000 -1.0000
usemtl wire_134006006
s 1
f 1/1/1 2/2/1 3/3/1
f 2/2/2 1/1/2 4/4/2
f 1/1/3 5/5/3 4/4/3
f 3/3/4 5/5/4 1/1/4
f 6/6/1 7/7/1 8/8/1
f 7/7/2 6/6/2 9/9/2
f 6/6/3 10/10/3 9/9/3
f 8/8/4 10/10/4 6/6/4
f 11/11/1 12/12/1 13/13/1
f 12/12/2 11/11/2 14/14/2
f 11/11/3 15/15/3 14/14/3
f 13/13/4 15/15/4 11/11/4
f 16/16/3 17/17/3 18/18/3
f 19/19/4 17/17/4 16/16/4
f 20/20/2 16/16/2 18/18/2
f 16/16/1 20/20/1 19/19/1
f 21/21/2 22/22/2 23/23/2
f 22/22/1 21/21/1 24/24/1
f 24/24/4 25/25/4 22/22/4
f 22/22/3 25/25/3 23/23/3
f 26/26/4 27/27/4 28/28/4
f 29/29/2 28/28/2 30/30/2
f 28/28/1 29/29/1 26/26/1
f 28/28/3 27/27/3 30/30/3
f 31/31/2 32/32/2 33/33/2
f 32/32/1 31/31/1 34/34/1
f 34/34/4 35/35/4 32/32/4
f 32/32/3 35/35/3 33/33/3
f 36/36/2 37/37/2 38/38/2
f 37/37/1 36/36/1 39/39/1
f 39/39/4 40/40/4 37/37/4
f 37/37/3 40/40/3 38/38/3
f 41/41/3 42/42/3 43/43/3
f 44/44/4 42/42/4 41/41/4
f 45/45/2 41/41/2 43/43/2
f 41/41/1 45/45/1 44/44/1
f 46/46/2 47/47/2 48/48/2
f 47/47/1 46/46/1 49/49/1
f 49/49/4 50/50/4 47/47/4
f 47/47/3 50/50/3 48/48/3
f 8/8/5 10/10/5 9/9/5 7/7/5
f 3/3/5 5/5/5 4/4/5 2/2/5
f 49/49/5 50/50/5 48/48/5 46/46/5
f 19/19/5 17/17/5 18/18/5 20/20/5
f 24/24/5 25/25/5 23/23/5 21/21/5
f 39/39/5 40/40/5 38/38/5 36/36/5
f 26/26/5 27/27/5 30/30/5 29/29/5
f 34/34/5 35/35/5 33/33/5 31/31/5
f 44/44/5 42/42/5 43/43/5 45/45/5
f 13/13/5 15/15/5 14/14/5 12/12/5
f 34/34/5 30/30/5 27/27/5 24/24/5
f 25/25/5 24/24/5 27/27/5 20/20/5
f 25/25/5 20/20/5 18/18/5 17/17/5
f 25/25/5 17/17/5 46/46/5 48/48/5
f 25/25/5 48/48/5 51/51/5 23/23/5
f 21/21/5 23/23/5 51/51/5 38/38/5
f 36/36/5 38/38/5 51/51/5 43/43/5
f 45/45/5 43/43/5 51/51/5 52/52/5
f 29/29/5 45/45/5 52/52/5 26/26/5
f 26/26/5 52/52/5 53/53/5 3/3/5
f 5/5/5 3/3/5 53/53/5 15/15/5
f 15/15/5 53/53/5 49/49/5 46/46/5
f 19/19/5 15/15/5 46/46/5 17/17/5
f 14/14/5 15/15/5 19/19/5 20/20/5
f 12/12/5 14/14/5 20/20/5 9/9/5
f 7/7/5 9/9/5 20/20/5 26/26/5
f 2/2/5 7/7/5 26/26/5 3/3/5
f 7/7/5 2/2/5 4/4/5 8/8/5
f 13/13/5 8/8/5 4/4/5 5/5/5
f 13/13/5 5/5/5 15/15/5
f 10/10/5 8/8/5 13/13/5 12/12/5
f 10/10/5 12/12/5 9/9/5
f 26/26/5 20/20/5 27/27/5
f 45/45/5 29/29/5 30/30/5 44/44/5
f 44/44/5 30/30/5 34/34/5 42/42/5
f 42/42/5 34/34/5 31/31/5 43/43/5
f 36/36/5 43/43/5 31/31/5 33/33/5
f 39/39/5 36/36/5 33/33/5 35/35/5
f 40/40/5 39/39/5 35/35/5 24/24/5
f 40/40/5 24/24/5 21/21/5 38/38/5
f 34/34/5 24/24/5 35/35/5
